<svg width="38" height="26" viewBox="0 0 38 26" fill="none" xmlns="http://www.w3.org/2000/svg">
<rect width="38" height="26" rx="2" fill="black"/>
<path d="M17.9355 13.0653V16.7421H16.7607V7.66244H19.8751C20.6644 7.66244 21.3374 7.92377 21.8881 8.44643C22.451 8.96908 22.7324 9.60721 22.7324 10.3608C22.7324 11.1326 22.451 11.7708 21.8881 12.2873C21.3435 12.8039 20.6705 13.0592 19.8751 13.0592H17.9355V13.0653ZM17.9355 8.78068V11.947H19.8996C20.3646 11.947 20.7562 11.789 21.0621 11.4791C21.3741 11.1691 21.5332 10.7923 21.5332 10.3669C21.5332 9.94755 21.3741 9.57682 21.0621 9.26688C20.7562 8.94477 20.3707 8.78676 19.8996 8.78676H17.9355V8.78068Z" fill="white"/>
<path d="M25.8036 10.3243C26.6724 10.3243 27.3577 10.5553 27.8594 11.0172C28.3611 11.479 28.612 12.1111 28.612 12.9133V16.7421H27.4923V15.8791H27.4434C26.96 16.5901 26.3114 16.9426 25.5038 16.9426C24.8124 16.9426 24.2372 16.7421 23.7722 16.3349C23.3072 15.9277 23.0747 15.4233 23.0747 14.8155C23.0747 14.1713 23.3194 13.6608 23.8089 13.284C24.2984 12.9012 24.9531 12.7128 25.7669 12.7128C26.4644 12.7128 27.0395 12.8404 27.4862 13.0956V12.8282C27.4862 12.421 27.3271 12.0807 27.0028 11.7951C26.6785 11.5094 26.2992 11.3696 25.8648 11.3696C25.2101 11.3696 24.69 11.6431 24.3107 12.1962L23.2766 11.552C23.8456 10.7315 24.69 10.3243 25.8036 10.3243ZM24.2862 14.8338C24.2862 15.1376 24.4147 15.3929 24.6778 15.5934C24.9348 15.794 25.2407 15.8973 25.5894 15.8973C26.085 15.8973 26.5256 15.715 26.911 15.3503C27.2965 14.9857 27.4923 14.5603 27.4923 14.068C27.1252 13.7824 26.6174 13.6365 25.9627 13.6365C25.4854 13.6365 25.0877 13.752 24.7695 13.9769C24.4453 14.2139 24.2862 14.4995 24.2862 14.8338Z" fill="white"/>
<path d="M34.9997 10.5249L31.0839 19.4709H29.8724L31.3286 16.341L28.7466 10.5249H30.0254L31.8854 14.9857H31.9099L33.721 10.5249H34.9997Z" fill="white"/>
<path d="M13.2628 12.3238C13.2628 11.9434 13.2286 11.5793 13.1649 11.2293H8.24072V13.2348L11.0767 13.2354C10.9616 13.9027 10.5915 14.4716 10.0243 14.8508V16.152H11.7124C12.6981 15.2458 13.2628 13.9064 13.2628 12.3238Z" fill="#4285F4"/>
<path d="M10.0249 14.8508C9.55502 15.1656 8.9499 15.3498 8.24198 15.3498C6.87448 15.3498 5.71441 14.4345 5.29896 13.2008H3.55762V14.5427C4.42033 16.2431 6.19349 17.41 8.24198 17.41C9.65781 17.41 10.8473 16.9475 11.713 16.1514L10.0249 14.8508Z" fill="#34A853"/>
<path d="M5.13476 12.2053C5.13476 11.8589 5.19289 11.524 5.29874 11.2092V9.86734H3.5574C3.20069 10.5705 3 11.3642 3 12.2053C3 13.0464 3.2013 13.8401 3.5574 14.5433L5.29874 13.2014C5.19289 12.8866 5.13476 12.5517 5.13476 12.2053Z" fill="#FABB05"/>
<path d="M8.24198 9.06026C9.01475 9.06026 9.70676 9.32462 10.2531 9.8412L11.7491 8.35649C10.8405 7.51599 9.65598 7.00001 8.24198 7.00001C6.1941 7.00001 4.42033 8.16688 3.55762 9.86733L5.29896 11.2092C5.71441 9.97551 6.87448 9.06026 8.24198 9.06026Z" fill="#E94235"/>
</svg>
