<svg width="57" height="56" viewBox="0 0 57 56" fill="none" xmlns="http://www.w3.org/2000/svg">
<path d="M2.01 3.52C2.84395 3.52 3.52 2.84395 3.52 2.01C3.52 1.17605 2.84395 0.5 2.01 0.5C1.17605 0.5 0.5 1.17605 0.5 2.01C0.5 2.84395 1.17605 3.52 2.01 3.52Z" stroke="#304B61" stroke-miterlimit="10"/>
<path d="M52.2539 25.2217C53.3779 24.6182 53.7999 23.2177 53.1963 22.0937C52.5928 20.9698 51.1924 20.5478 50.0684 21.1514C48.9444 21.7549 48.5225 23.1553 49.126 24.2793C49.7295 25.4033 51.1299 25.8252 52.2539 25.2217Z" stroke="#304B61" stroke-miterlimit="10"/>
<path d="M56.0501 49.6602L50.5801 55.4802" stroke="#304B61" stroke-miterlimit="10" stroke-linecap="round"/>
<path d="M56.2202 55.3098L50.4102 49.8398" stroke="#304B61" stroke-miterlimit="10" stroke-linecap="round"/>
<path d="M32.5866 9.39245C33.4138 8.9483 33.7243 7.91768 33.2802 7.09049C32.836 6.26331 31.8054 5.95281 30.9782 6.39696C30.151 6.84111 29.8405 7.87174 30.2847 8.69892C30.7288 9.5261 31.7595 9.83661 32.5866 9.39245Z" fill="#304B61"/>
<path d="M10.6797 19.7803L13.7597 23.6303" stroke="#304B61" stroke-miterlimit="10" stroke-linecap="round"/>
<path d="M10.2891 23.2499L14.1391 20.1699" stroke="#304B61" stroke-miterlimit="10" stroke-linecap="round"/>
<path d="M33.2295 34.8604C33.8978 34.8604 34.4395 34.3187 34.4395 33.6504C34.4395 32.9822 33.8978 32.4404 33.2295 32.4404C32.5613 32.4404 32.0195 32.9822 32.0195 33.6504C32.0195 34.3187 32.5613 34.8604 33.2295 34.8604Z" fill="#304B61"/>
</svg>
